# xmcd
#
# Track frame offsets: 
#        183
#        21395
#        46035
#        63648
#        85755
#        108310
#        132053
#        158100
#        178038
#        195218
#
# Disc length: 3023 seconds
#
# Revision: 0
# Processed by: cddbd v1.5.2PL0 Copyright (c) Steve Scherf et al.
# Submitted via: ExactAudioCopy v1.0b3
#
DISCID=770bcd0a
DTITLE=萩原健一 - STRAIGHT LIGHT AMCM-5035
DYEAR=1900
DGENRE=Blues
TTITLE0=ギミー・ユア・ラヴ
TTITLE1=ギャンブラー 
TTITLE2=ノー・プロブレム
TTITLE3=友
TTITLE4=シー・ソウ
TTITLE5=愚か者よ
TTITLE6=P―Cat 
TTITLE7=影子
TTITLE8=晩秋
TTITLE9=フェイマス・ガイ
EXTD=
EXTT0=
EXTT1=
EXTT2=
EXTT3=
EXTT4=
EXTT5=
EXTT6=
EXTT7=
EXTT8=
EXTT9=
PLAYORDER=
